<svg width="221" height="53" viewBox="0 0 221 53" fill="none" xmlns="http://www.w3.org/2000/svg">
<path d="M40.801 43.0726C46.3702 40.7288 46.4054 35.8808 46.4054 35.8808V31.7998H33.3128C33.3128 31.7998 33.3128 33.9088 33.3128 37.2464C33.3128 40.1654 30.9473 40.944 28.8207 39.778C28.1706 39.4219 27.446 38.968 26.6941 38.4476V38.4555C26.6941 38.4594 35.1653 45.4555 40.801 43.0726Z" fill="#0C6738"/>
<path d="M13.6602 26.5098C10.343 30.6886 8.36126 34.6601 6.97876 37.8764C10.484 41.7501 15.0231 45.9407 20.4747 49.3448C32.6431 56.9357 46.4093 52.5768 46.4093 37.4186V35.8848C46.4093 35.8848 46.4602 40.5645 40.8206 42.7361C34.9107 45.0173 26.694 38.4634 26.694 38.4634V38.4555C22.7149 35.744 17.5766 31.0369 13.6602 26.5098Z" fill="#008041"/>
<path d="M20.475 3.65127C20.3614 3.71779 20.2479 3.79605 20.1343 3.8743C24.3993 1.40533 33.3796 2.29745 33.3796 12.0051V21.2002H43.5584H46.4095V15.5853C46.4095 0.415393 32.6433 -3.93172 20.475 3.65127Z" fill="#44B051"/>
<path d="M20.1343 3.87408C11.201 9.53981 4.75845 17.3263 1.33158 22.1234V22.1273C0.477803 23.3715 0 24.8701 0 26.4979C0 28.1256 0.477803 29.6242 1.33158 30.8685C1.33158 30.8763 1.33158 30.8763 1.33158 30.8763C2.72583 32.8288 4.61746 35.2821 6.97906 37.8763C13.3354 22.6438 26.1499 14.6695 28.8209 13.2257C30.9475 12.0636 33.3131 12.8266 33.3131 15.7572C33.3131 15.9724 33.3131 16.1681 33.3131 16.3716L33.3757 20.836V12.0049C33.3757 2.29332 24.3954 1.4012 20.1343 3.87408Z" fill="#01A04E"/>
<path d="M219.836 11.936C219.601 11.349 218.387 9.2749 214.431 9.2749V37.0994H220.15V13.8928C220.15 13.1883 220.072 12.5231 219.836 11.936Z" fill="#313E4E"/>
<path d="M53.0481 26.7676C53.0481 25.2805 53.2831 23.9108 53.7923 22.6194C54.2624 21.3279 54.9674 20.193 55.8684 19.2538C56.7693 18.3146 57.8269 17.5319 59.1195 16.984C60.4122 16.4361 61.8615 16.123 63.5066 16.123C64.5643 16.123 65.5827 16.2013 66.4836 16.397C67.3845 16.5927 68.2463 16.8666 69.0689 17.2188L67.8938 21.7975C67.3845 21.6019 66.797 21.4062 66.1311 21.2496C65.4652 21.0931 64.7601 21.0148 63.9375 21.0148C62.2532 21.0148 60.9997 21.5236 60.138 22.5802C59.3154 23.6368 58.8845 25.0065 58.8845 26.7285C58.8845 28.5286 59.2762 29.9375 60.0596 30.955C60.843 31.9725 62.214 32.4421 64.1726 32.4421C64.8776 32.4421 65.6219 32.3638 66.4053 32.2464C67.1887 32.129 67.9329 31.8942 68.5988 31.6202L69.4214 36.3164C68.7555 36.5903 67.9329 36.8251 66.9145 37.0208C65.8961 37.2165 64.7993 37.3339 63.6242 37.3339C61.744 37.3339 60.1771 37.0599 58.8453 36.512C57.5135 35.9642 56.4168 35.2206 55.555 34.2423C54.6933 33.303 54.0665 32.1681 53.6748 30.8767C53.244 29.7027 53.0481 28.2938 53.0481 26.7676Z" fill="#313E4E"/>
<path d="M91.3573 26.7285C91.3573 28.333 91.1223 29.7809 90.6522 31.1115C90.1822 32.4421 89.5163 33.577 88.6545 34.5162C87.7928 35.4554 86.7351 36.1598 85.5209 36.6686C84.3066 37.1773 82.9356 37.4513 81.4079 37.4513C79.9195 37.4513 78.5485 37.1773 77.3342 36.6686C76.1199 36.1598 75.0623 35.4554 74.2397 34.5162C73.3388 33.577 72.6729 32.4421 72.1637 31.1115C71.6936 29.7809 71.4194 28.333 71.4194 26.7285C71.4194 25.1631 71.6545 23.676 72.1637 22.3845C72.6729 21.0931 73.3388 19.9582 74.2397 19.019C75.1406 18.0798 76.1591 17.3753 77.3734 16.8666C78.5877 16.3579 79.9195 16.123 81.3688 16.123C82.8573 16.123 84.1891 16.3579 85.4033 16.8666C86.6176 17.3753 87.6752 18.1189 88.537 19.019C89.4379 19.9582 90.1038 21.054 90.5739 22.3845C91.1223 23.676 91.3573 25.1631 91.3573 26.7285ZM85.5209 26.7285C85.5209 24.9674 85.1683 23.5586 84.4632 22.5802C83.7582 21.5627 82.7397 21.054 81.4471 21.054C80.1545 21.054 79.136 21.5627 78.431 22.5802C77.6867 23.5977 77.3342 24.9674 77.3342 26.7285C77.3342 28.4895 77.6867 29.8983 78.431 30.955C79.136 32.0116 80.1545 32.5203 81.4471 32.5203C82.7397 32.5203 83.7582 32.0116 84.4632 30.955C85.1683 29.8983 85.5209 28.4895 85.5209 26.7285Z" fill="#313E4E"/>
<path d="M123.006 37.0995C121.675 34.4775 120.343 31.425 119.011 27.9029C117.679 24.3808 116.387 20.5456 115.172 16.4365H121.283C121.518 17.454 121.831 18.5498 122.184 19.7629C122.536 20.937 122.889 22.1501 123.281 23.3633C123.633 24.5765 124.025 25.7896 124.377 26.9245C124.769 28.0986 125.122 29.116 125.474 30.0553C125.827 29.116 126.179 28.0594 126.532 26.9245C126.924 25.7896 127.315 24.5765 127.668 23.3633C128.059 22.1501 128.412 20.937 128.765 19.7629C129.117 18.5498 129.391 17.454 129.665 16.4365H135.58C134.366 20.5848 133.112 24.4199 131.742 27.9029C130.41 31.425 129.078 34.4775 127.746 37.0995H123.006Z" fill="#313E4E"/>
<path d="M136.834 26.9241C136.834 25.1239 137.108 23.5586 137.657 22.228C138.205 20.8974 138.949 19.7625 139.811 18.8625C140.712 18.0015 141.77 17.2971 142.906 16.8275C144.081 16.3579 145.256 16.123 146.509 16.123C149.369 16.123 151.641 16.984 153.325 18.745C154.97 20.5061 155.793 23.089 155.793 26.4937C155.793 26.8067 155.793 27.1981 155.754 27.5894C155.714 27.9808 155.714 28.333 155.675 28.646H142.671C142.788 29.8201 143.337 30.7593 144.316 31.4637C145.295 32.1681 146.588 32.5203 148.233 32.5203C149.29 32.5203 150.309 32.4421 151.327 32.2464C152.346 32.0507 153.168 31.8159 153.795 31.542L154.579 36.199C154.265 36.3555 153.873 36.512 153.325 36.6294C152.816 36.786 152.267 36.9034 151.641 37.0208C151.014 37.1382 150.309 37.2165 149.604 37.3339C148.899 37.4121 148.155 37.4513 147.449 37.4513C145.608 37.4513 144.042 37.1773 142.71 36.6294C141.378 36.0816 140.242 35.3771 139.341 34.4379C138.479 33.4987 137.814 32.4029 137.383 31.1115C137.069 29.7809 136.834 28.4112 136.834 26.9241ZM150.309 24.7326C150.27 24.2239 150.191 23.7542 150.074 23.3238C149.917 22.8542 149.721 22.4628 149.408 22.1106C149.134 21.7584 148.742 21.4453 148.272 21.2105C147.841 20.9757 147.254 20.8583 146.588 20.8583C145.961 20.8583 145.373 20.9757 144.943 21.1714C144.473 21.4062 144.12 21.6801 143.807 22.0323C143.493 22.3845 143.258 22.815 143.102 23.2846C142.945 23.7542 142.827 24.2239 142.749 24.7326H150.309V24.7326Z" fill="#313E4E"/>
<path d="M181.175 32.7948C182.233 32.7948 182.977 32.6774 183.408 32.4818C183.839 32.2861 184.074 31.8947 184.074 31.2686C184.074 30.799 183.76 30.4076 183.212 30.0554C182.624 29.7032 181.802 29.3119 180.627 28.8814C179.726 28.5292 178.903 28.2161 178.198 27.8248C177.454 27.4726 176.827 27.0421 176.318 26.5333C175.809 26.0246 175.417 25.4376 175.143 24.7332C174.869 24.0287 174.712 23.2069 174.712 22.2286C174.712 20.3501 175.417 18.8239 176.827 17.7281C178.237 16.6324 180.157 16.0845 182.624 16.0845C183.878 16.0845 185.053 16.2019 186.15 16.3975C187.286 16.6323 188.187 16.8672 188.853 17.1411L187.834 21.6024C187.168 21.3676 186.424 21.1719 185.68 20.9763C184.896 20.8197 183.995 20.7023 183.055 20.7023C181.253 20.7023 180.353 21.2111 180.353 22.1894C180.353 22.4242 180.392 22.6199 180.47 22.8156C180.548 23.0112 180.705 23.1678 180.94 23.3243C181.175 23.4809 181.488 23.6765 181.88 23.8722C182.272 24.0679 182.781 24.3027 183.408 24.5375C184.661 25.0071 185.68 25.4767 186.502 25.9072C187.325 26.3768 187.952 26.8464 188.461 27.3552C188.931 27.903 189.283 28.4901 189.479 29.1162C189.675 29.7424 189.753 30.525 189.753 31.3469C189.753 33.3427 189.009 34.8298 187.521 35.8865C186.032 36.9039 183.917 37.4127 181.136 37.4127C179.334 37.4127 177.846 37.2561 176.671 36.9431C175.456 36.63 174.634 36.3561 174.164 36.1604L175.143 31.5034C176.122 31.8947 177.101 32.2078 178.12 32.4035C179.177 32.6774 180.196 32.7948 181.175 32.7948Z" fill="#313E4E"/>
<path d="M210.828 29.8592V24.2239C210.828 23.0498 210.671 21.9541 210.397 20.9757C210.122 19.9582 209.613 19.0973 208.947 18.3537C208.242 17.6493 207.341 17.1014 206.245 16.7101C205.109 16.3187 203.699 16.123 202.014 16.123C201.348 16.123 200.682 16.1622 200.056 16.2013C199.39 16.2796 198.763 16.3579 198.175 16.4361C197.588 16.5144 197.039 16.6318 196.53 16.7492C196.06 16.8666 195.629 16.984 195.277 17.0623L196.021 21.6801C196.726 21.4062 197.549 21.2105 198.489 21.0931C199.429 20.9366 200.408 20.8974 201.387 20.8974C202.837 20.8974 203.894 21.1714 204.482 21.7584C205.069 22.3454 205.383 23.1281 205.383 24.1065V24.6543C204.991 24.5761 204.56 24.4587 203.973 24.4195C203.385 24.3413 202.719 24.3413 201.975 24.3413C200.878 24.3413 199.821 24.4587 198.802 24.6543C197.784 24.8891 196.883 25.2413 196.06 25.711C195.277 26.2197 194.65 26.8459 194.141 27.6677C193.671 28.4895 193.436 29.507 193.436 30.681C193.436 31.8942 193.632 32.9508 194.063 33.7726C194.493 34.6336 195.081 35.2989 195.825 35.8468C196.609 36.3555 197.51 36.7468 198.606 36.9817C199.664 37.2165 200.839 37.3339 202.171 37.3339C203.15 37.3339 204.09 37.2947 204.913 37.2556C208.791 36.786 210.828 34.3596 210.828 29.8592ZM200.016 32.3638C199.429 32.0116 199.116 31.3854 199.116 30.4854C199.116 30.0157 199.194 29.6244 199.429 29.3113C199.625 29.0374 199.899 28.7634 200.251 28.6069C200.604 28.4504 201.035 28.2938 201.505 28.2547C202.014 28.1764 202.484 28.1373 203.033 28.1373C203.385 28.1373 203.855 28.1764 204.286 28.2156C204.756 28.2547 205.109 28.333 205.344 28.3721V30.8376C205.344 31.9725 204.756 32.7551 203.346 32.8725C203.072 32.8725 202.758 32.8725 202.484 32.8725C201.427 32.8725 200.604 32.716 200.016 32.3638Z" fill="#313E4E"/>
<path d="M100.719 37.0994V26.1809C100.719 24.3416 100.954 23.011 101.463 22.2675C101.894 21.5631 102.717 21.1717 103.853 21.1326H103.892C103.931 21.1326 104.009 21.1326 104.048 21.1326C104.127 21.1326 104.166 21.1326 104.205 21.1326H104.244C105.38 21.2109 106.203 21.5631 106.634 22.2675C107.104 23.0502 107.378 24.3416 107.378 26.1809V37.0994H113.097V25.4765C113.097 24.0677 112.94 22.8154 112.666 21.7196C112.392 20.5847 111.883 19.6064 111.217 18.7845C110.551 17.9627 109.65 17.3366 108.514 16.8669C107.378 16.4365 105.929 16.2017 104.205 16.2017H103.813C102.09 16.2017 100.68 16.4365 99.5046 16.8669C98.3686 17.2974 97.4677 17.9627 96.8018 18.7845C96.1359 19.6064 95.6659 20.5847 95.3525 21.7196C95.0783 22.8545 94.9216 24.1068 94.9216 25.4765V37.0994H100.719Z" fill="#313E4E"/>
<path d="M168.21 16.2017C166.486 16.2017 165.076 16.4365 163.901 16.8669C162.765 17.2974 161.864 17.9627 161.198 18.7845C160.532 19.6064 160.062 20.5847 159.749 21.7196C159.475 22.8545 159.318 24.1068 159.318 25.4765V37.0994H165.037V26.1809C165.037 24.3416 165.272 23.011 165.781 22.2675C166.212 21.5631 167.034 21.1717 168.17 21.1326H168.21C168.327 21.1326 168.405 21.1326 168.523 21.1326C168.719 21.1326 168.915 21.1326 169.15 21.1326H171.069V16.2408H168.21V16.2017Z" fill="#313E4E"/>
</svg>
