<svg width="20" height="20" viewBox="0 0 20 20" fill="none" xmlns="http://www.w3.org/2000/svg">
<path d="M0.499748 11.5363C0.379748 11.5363 0.259748 11.4933 0.164748 11.4073C-0.0402518 11.2223 -0.0562518 10.9063 0.129748 10.7013L8.95875 0.473333C9.23275 0.170333 9.60275 0 10.0007 0C10.3977 0 10.7677 0.170333 11.0427 0.473333L19.8717 10.7013C20.0567 10.9063 20.0407 11.2223 19.8367 11.4073C19.6327 11.5923 19.3157 11.5763 19.1307 11.3723L10.3017 1.14C10.2197 1.049 10.1127 1 10.0017 1C9.89075 1 9.78375 1.049 9.70175 1.14L0.872748 11.3723C0.773748 11.4813 0.637748 11.5373 0.501748 11.5373L0.499748 11.5363Z" fill="black"/>
<path d="M15.4997 20H4.49975C3.67275 20 2.99975 19.327 2.99975 18.5V10.0363C2.99975 9.76034 3.22375 9.53634 3.49975 9.53634C3.77575 9.53634 3.99975 9.76034 3.99975 10.0363V18.5C3.99975 18.776 4.22375 19 4.49975 19H15.4997C15.7757 19 15.9997 18.776 15.9997 18.5V10.0363C15.9997 9.76034 16.2237 9.53634 16.4997 9.53634C16.7757 9.53634 16.9997 9.76034 16.9997 10.0363V18.5C16.9997 19.327 16.3267 20 15.4997 20Z" fill="black"/>
</svg>
