<svg width="20" height="20" viewBox="0 0 20 20" fill="none" xmlns="http://www.w3.org/2000/svg">
<g clip-path="url(#clip0_2298_2717)">
<path d="M17.071 2.929C15.182 1.04 12.671 0 10 0C7.329 0 4.818 1.04 2.929 2.929C1.04 4.818 0 7.329 0 10C0 12.671 1.04 15.182 2.929 17.071C4.818 18.96 7.329 20 10 20C11.569 20 13.071 19.647 14.465 18.95C15.794 18.286 16.98 17.314 17.895 16.138C18.065 15.92 18.026 15.606 17.808 15.436C17.59 15.266 17.276 15.305 17.106 15.523C15.386 17.732 12.796 18.999 10 18.999C5.037 18.999 1 14.962 1 9.999C1 5.036 5.037 0.999 10 0.999C14.963 0.999 19 5.036 19 9.999C19 11.765 17.972 12.999 16.5 12.999C15.122 12.999 14 11.877 14 10.499V6.499C14 6.223 13.776 5.999 13.5 5.999C13.224 5.999 13 6.223 13 6.499V7.356C12.266 6.524 11.194 5.999 10 5.999C7.794 5.999 6 7.793 6 9.999C6 12.205 7.794 13.999 10 13.999C11.43 13.999 12.687 13.244 13.395 12.112C13.979 13.232 15.152 13.999 16.5 13.999C17.468 13.999 18.353 13.606 18.994 12.892C19.652 12.158 20 11.158 20 9.999C20 7.328 18.96 4.817 17.071 2.928V2.929ZM10 13C8.346 13 7 11.654 7 10C7 8.346 8.346 7 10 7C11.654 7 13 8.346 13 10C13 11.654 11.654 13 10 13Z" fill="black"/>
</g>
<defs>
<clipPath id="clip0_2298_2717">
<rect width="20" height="20" fill="white"/>
</clipPath>
</defs>
</svg>
