<svg width="91" height="40" viewBox="0 0 91 40" fill="none" xmlns="http://www.w3.org/2000/svg">
<path d="M88 0H3.33398C1.67713 0 0.333984 1.34315 0.333984 3V36.9457C0.333984 38.6026 1.67713 39.9457 3.33398 39.9457H88C89.6569 39.9457 91 38.6026 91 36.9457V3C91 1.34315 89.6569 0 88 0Z" fill="white"/>
<path d="M8.58003 0.0541992H0.333984V39.9999H8.58003V0.0541992Z" fill="#4285F4"/>
<path d="M16.6646 34.6495H15.0508V18.5221H19.3121C20.3349 18.501 21.3243 18.9896 22.0729 19.8855C22.4432 20.3221 22.7388 20.8529 22.9411 21.4442C23.1433 22.0354 23.2478 22.6743 23.2478 23.3202C23.2478 23.966 23.1433 24.6049 22.9411 25.1961C22.7388 25.7874 22.4432 26.3182 22.0729 26.7548C21.3243 27.6507 20.3349 28.1393 19.3121 28.1182H16.6646V34.6495ZM16.6646 26.1372H19.3846C19.6901 26.1521 19.9944 26.0812 20.2763 25.9292C20.5582 25.7772 20.8108 25.548 21.0166 25.2574C21.409 24.7387 21.6285 24.0437 21.6285 23.3202C21.6285 22.5966 21.409 21.9017 21.0166 21.3829C20.8116 21.0911 20.5591 20.861 20.277 20.7089C19.9949 20.5568 19.6902 20.4866 19.3846 20.5031H16.6646V26.1372Z" fill="#757575"/>
<path d="M27.0425 35.0098C26.2159 35.0394 25.4095 34.6787 24.7758 33.996C24.4777 33.6655 24.2414 33.253 24.0845 32.789C23.9275 32.325 23.8539 31.8215 23.8691 31.3159C23.8534 30.765 23.9446 30.2176 24.1345 29.7233C24.3244 29.2289 24.6072 28.8031 24.9571 28.4843C25.7405 27.7799 26.6809 27.422 27.6363 27.4647C28.4459 27.4213 29.2499 27.6545 29.9664 28.1406V27.8201C29.9772 27.4532 29.9237 27.0879 29.8099 26.7511C29.6962 26.4143 29.525 26.1146 29.3091 25.8741C28.8696 25.3805 28.3013 25.1184 27.7179 25.14C27.2708 25.1332 26.8306 25.2822 26.4441 25.5712C26.0847 25.8283 25.8083 26.2413 25.6643 26.7364L24.1955 25.9266C24.4418 25.1827 24.8494 24.5456 25.3697 24.0913C26.0467 23.4896 26.8596 23.1926 27.6817 23.2465C28.6765 23.2071 29.6468 23.6478 30.4016 24.4816C30.7704 24.9268 31.0586 25.4707 31.2458 26.0747C31.433 26.6788 31.5147 27.3283 31.4851 27.9774V34.6486H29.9438V33.1163H29.8758C29.5759 33.7256 29.1557 34.2218 28.658 34.5545C28.1602 34.8871 27.6028 35.0442 27.0425 35.0098V35.0098ZM27.3054 33.1163C27.9832 33.1106 28.6329 32.7682 29.1187 32.1607C29.3746 31.8817 29.5801 31.5344 29.721 31.143C29.8619 30.7517 29.9348 30.3255 29.9347 29.8943C29.3366 29.358 28.613 29.1029 27.8857 29.1718C27.2609 29.1189 26.6415 29.3499 26.1358 29.8244C25.9524 30.005 25.8032 30.2367 25.6996 30.5022C25.5959 30.7676 25.5405 31.0598 25.5374 31.3567C25.5338 31.6084 25.5801 31.8572 25.6722 32.0794C25.7642 32.3017 25.8988 32.4901 26.0633 32.6268C26.4286 32.9494 26.8622 33.1202 27.3054 33.1163V33.1163Z" fill="#757575"/>
<path d="M34.8173 23.6142V25.4146H34.8853C35.0755 24.7586 35.4466 24.2154 35.928 23.888C36.4384 23.519 37.0152 23.3282 37.6008 23.3345C37.7947 23.337 37.9884 23.3525 38.181 23.3811V25.4087C37.9657 25.3792 37.7493 25.3636 37.5328 25.3621C36.8362 25.3234 36.1546 25.63 35.6288 26.2186C35.3783 26.522 35.182 26.8917 35.0537 27.3021C34.9253 27.7126 34.8679 28.154 34.8853 28.5958V34.6494H33.2715V23.6142H34.8173ZM43.6482 34.8301C43.2756 34.8854 42.8981 34.8322 42.5437 34.6743C42.1894 34.5165 41.8672 34.2582 41.6011 33.9184C41.335 33.5787 41.1319 33.1663 41.0068 32.7119C40.8817 32.2574 40.8378 31.7726 40.8784 31.2934V25.502H39.3733V23.6142H40.8784V20.2349H42.4922V23.6142H44.5957V25.502H42.4922V31.1361C42.4922 32.3363 42.8775 32.9365 43.6482 32.9365C43.9004 32.9471 44.1513 32.8854 44.3826 32.7559L44.9447 34.5329C44.5331 34.7458 44.0917 34.8469 43.6482 34.8301Z" fill="#757575"/>
<path d="M47.9354 23.6139V25.1404H48.0034C48.2729 24.5753 48.6547 24.1128 49.1095 23.8004C49.6004 23.4378 50.1572 23.2488 50.7233 23.2527C51.1765 23.2152 51.6304 23.3088 52.0517 23.5266C52.473 23.7444 52.851 24.0809 53.1577 24.5112C53.7489 25.4682 54.0472 26.6702 53.9964 27.8905V34.6491H52.3871V28.2051C52.3871 26.1659 51.6799 25.1404 50.2655 25.1404C49.9502 25.1321 49.638 25.2209 49.3549 25.3993C49.0718 25.5776 48.826 25.8405 48.638 26.1659C48.2185 26.8398 47.9941 27.68 48.0034 28.543V34.6491H46.394V23.6139H47.9354Z" fill="#757575"/>
<path d="M59.5928 35.011C59.0017 35.0396 58.4126 34.9051 57.8652 34.6167C57.3179 34.3283 56.8249 33.8925 56.4195 33.3388C55.6019 32.1957 55.1685 30.6839 55.2137 29.1322C55.19 27.6078 55.6122 26.1274 56.3968 24.9838C56.7667 24.4214 57.2299 23.9726 57.7523 23.6701C58.2747 23.3677 58.8432 23.2193 59.416 23.2359C59.9854 23.2035 60.5535 23.3294 61.0816 23.6049C61.6097 23.8804 62.0853 24.2991 62.476 24.8324C63.278 26.0201 63.6892 27.5619 63.6229 29.1322V29.5109H56.823C56.8304 30.5039 57.1433 31.4528 57.6934 32.1503C58.1909 32.7759 58.8606 33.1235 59.5566 33.1174C60.0546 33.1704 60.5526 33.0145 60.976 32.6732C61.3993 32.3318 61.7252 31.8233 61.9048 31.2239L63.3419 31.9929C63.0556 32.8603 62.5841 33.6057 61.9819 34.1429C61.2763 34.7478 60.4404 35.0515 59.5928 35.011V35.011ZM61.9048 27.8038C61.8542 27.1188 61.6165 26.479 61.2339 25.9976C60.9895 25.6962 60.6986 25.4642 60.3799 25.3167C60.0613 25.1691 59.7221 25.1093 59.3843 25.1412C58.8129 25.126 58.2573 25.3833 57.8248 25.8636C57.3709 26.3712 57.0536 27.0503 56.9182 27.8038H61.9048Z" fill="#757575"/>
<path d="M66.7734 34.649H65.146V23.6138H66.6873V25.4142H66.7553C66.9445 24.7805 67.3028 24.2538 67.7662 23.9284C68.2085 23.5652 68.7194 23.3638 69.2441 23.3458C69.6578 23.3309 70.0696 23.4241 70.4545 23.6196L69.8425 25.554C69.5649 25.4362 69.2732 25.383 68.9812 25.3967C68.6888 25.3989 68.3999 25.4794 68.133 25.6328C67.8661 25.7863 67.627 26.0094 67.4308 26.2881C67.203 26.5991 67.0259 26.9655 66.91 27.3657C66.794 27.766 66.7414 28.192 66.7553 28.6187L66.7734 34.649Z" fill="#757575"/>
<path d="M18.7391 14.8287C17.7164 14.8289 16.7344 14.3132 16.0045 13.3925C15.2745 12.4718 14.8549 11.2197 14.8359 9.90547C14.8455 8.58311 15.2609 7.3191 15.9919 6.38838C16.7228 5.45767 17.7102 4.93556 18.7391 4.93561C19.2273 4.926 19.7121 5.04162 20.1652 5.27572C20.6182 5.50982 21.0303 5.85769 21.3775 6.29897L20.6386 7.25449C20.1289 6.62393 19.4465 6.2765 18.7391 6.28732C18.0162 6.32472 17.3325 6.72012 16.8313 7.39074C16.3301 8.06136 16.0502 8.95519 16.0502 9.88507C16.0502 10.815 16.3301 11.7088 16.8313 12.3794C17.3325 13.05 18.0162 13.4454 18.7391 13.4828C19.0998 13.5012 19.4594 13.4226 19.7951 13.252C20.1308 13.0815 20.435 12.8227 20.6884 12.4924C21.0218 12.023 21.2243 11.4245 21.2642 10.7911H18.73V9.4044H22.2796C22.3198 9.69478 22.3395 9.98924 22.3386 10.2842C22.3686 11.4485 22.0432 12.5819 21.4319 13.442C21.0857 13.9063 20.6664 14.2701 20.2021 14.5092C19.7377 14.7484 19.2389 14.8573 18.7391 14.8287V14.8287Z" fill="#4285F4"/>
<path d="M27.9966 11.6528C27.9984 12.2859 27.8539 12.9055 27.5816 13.4331C27.3092 13.9606 26.9211 14.3724 26.4665 14.6163C26.0119 14.8602 25.5112 14.9252 25.0279 14.8031C24.5445 14.681 24.1002 14.3773 23.7512 13.9304C23.4022 13.4835 23.1643 12.9136 23.0675 12.2928C22.9708 11.672 23.0195 11.0282 23.2076 10.4431C23.3957 9.85792 23.7147 9.35766 24.1242 9.00567C24.5336 8.65368 25.0152 8.46578 25.5078 8.46577C25.8354 8.45872 26.1607 8.53625 26.4646 8.69377C26.7684 8.85129 27.0445 9.08559 27.2766 9.38279C27.5087 9.67999 27.692 10.034 27.8157 10.424C27.9394 10.8139 28.0009 11.2318 27.9966 11.6528V11.6528ZM26.9086 11.6528C26.9242 11.4042 26.8995 11.1541 26.8362 10.9184C26.7729 10.6826 26.6722 10.4663 26.5406 10.283C26.409 10.0997 26.2493 9.95342 26.0716 9.85337C25.8938 9.75332 25.7019 9.70167 25.5078 9.70167C25.3137 9.70167 25.1218 9.75332 24.944 9.85337C24.7663 9.95342 24.6066 10.0997 24.475 10.283C24.3434 10.4663 24.2428 10.6826 24.1794 10.9184C24.1161 11.1541 24.0914 11.4042 24.107 11.6528C24.0914 11.9014 24.1161 12.1515 24.1794 12.3872C24.2428 12.623 24.3434 12.8393 24.475 13.0226C24.6066 13.2059 24.7663 13.3522 24.944 13.4522C25.1218 13.5523 25.3137 13.6039 25.5078 13.6039C25.7019 13.6039 25.8938 13.5523 26.0716 13.4522C26.2493 13.3522 26.409 13.2059 26.5406 13.0226C26.6722 12.8393 26.7729 12.623 26.8362 12.3872C26.8995 12.1515 26.9242 11.9014 26.9086 11.6528V11.6528Z" fill="#EA4335"/>
<path d="M33.626 11.6534C33.6269 12.2873 33.4812 12.9072 33.2075 13.4345C32.9337 13.9617 32.5443 14.3726 32.0885 14.6149C31.6328 14.8572 31.1313 14.92 30.6478 14.7953C30.1642 14.6707 29.7203 14.3642 29.3726 13.9147C29.0248 13.4653 28.7887 12.8932 28.6944 12.271C28.6001 11.6489 28.6517 11.0047 28.8427 10.4203C29.0337 9.83593 29.3555 9.33766 29.7673 8.98875C30.179 8.63984 30.6622 8.45603 31.1554 8.46065C31.482 8.45592 31.806 8.5354 32.1083 8.6944C32.4106 8.85339 32.6851 9.08868 32.9154 9.38634C33.1457 9.684 33.3273 10.038 33.4494 10.4274C33.5714 10.8168 33.6315 11.2337 33.626 11.6534V11.6534ZM32.538 11.6534C32.5489 11.4088 32.5207 11.1639 32.4553 10.9337C32.39 10.7035 32.2887 10.4929 32.1578 10.3148C32.0268 10.1366 31.869 9.99474 31.6939 9.89776C31.5188 9.80077 31.3301 9.75075 31.1395 9.75075C30.9488 9.75075 30.7602 9.80077 30.5851 9.89776C30.41 9.99474 30.2521 10.1366 30.1212 10.3148C29.9903 10.4929 29.889 10.7035 29.8236 10.9337C29.7583 11.1639 29.7301 11.4088 29.741 11.6534C29.7301 11.8981 29.7583 12.143 29.8236 12.3732C29.889 12.6034 29.9903 12.814 30.1212 12.9921C30.2521 13.1702 30.41 13.3121 30.5851 13.4091C30.7602 13.5061 30.9488 13.5561 31.1395 13.5561C31.3301 13.5561 31.5188 13.5061 31.6939 13.4091C31.869 13.3121 32.0268 13.1702 32.1578 12.9921C32.2887 12.814 32.39 12.6034 32.4553 12.3732C32.5207 12.143 32.5489 11.8981 32.538 11.6534V11.6534Z" fill="#FBBC05"/>
<path d="M39.065 8.65157V14.3732C39.065 16.7037 37.9861 17.6884 36.7122 17.6884C36.2417 17.6912 35.7812 17.5137 35.3896 17.1785C34.9979 16.8432 34.693 16.3656 34.5136 15.8065L35.461 15.2996C35.5566 15.6286 35.7271 15.913 35.9503 16.1156C36.1735 16.3183 36.439 16.4298 36.7122 16.4357C37.5282 16.4357 38.036 15.7832 38.036 14.5654V14.1051H38.0133C37.8497 14.3405 37.6481 14.527 37.4226 14.6518C37.1971 14.7766 36.9531 14.8366 36.7077 14.8276C36.069 14.7925 35.4655 14.4417 35.0232 13.8484C34.5809 13.2551 34.334 12.4651 34.334 11.6435C34.334 10.8218 34.5809 10.0319 35.0232 9.43855C35.4655 8.84525 36.069 8.49442 36.7077 8.4593C36.9522 8.4508 37.1953 8.50985 37.4206 8.63249C37.6458 8.75512 37.8479 8.93846 38.0133 9.17013H38.0541V8.65157H39.065ZM38.1085 11.6522C38.1246 11.4118 38.1027 11.1697 38.0443 10.9403C37.9859 10.711 37.8921 10.4991 37.7685 10.3175C37.645 10.1358 37.4941 9.98803 37.3251 9.88299C37.1561 9.77796 36.9723 9.71781 36.7848 9.70616C36.596 9.71883 36.411 9.77925 36.2403 9.88397C36.0697 9.98869 35.9169 10.1357 35.7905 10.3164C35.6642 10.4972 35.5669 10.7083 35.5041 10.9375C35.4413 11.1667 35.4144 11.4096 35.4248 11.6522C35.4156 11.893 35.4436 12.1337 35.5071 12.3606C35.5706 12.5874 35.6683 12.7959 35.7947 12.974C35.9211 13.1522 36.0736 13.2964 36.2435 13.3986C36.4134 13.5007 36.5974 13.5586 36.7848 13.5691C36.9709 13.5597 37.1535 13.502 37.3219 13.3996C37.4902 13.2971 37.6407 13.1521 37.7643 12.973C37.8879 12.794 37.9821 12.5847 38.0413 12.3578C38.1004 12.1308 38.1233 11.8908 38.1085 11.6522Z" fill="#4285F4"/>
<path d="M41.1071 5.27295V14.636H40.019V5.27295H41.1071Z" fill="#34A853"/>
<path d="M45.6139 12.6953L46.4571 13.4003C46.2303 13.837 45.9227 14.1944 45.5619 14.4405C45.2011 14.6866 44.7984 14.8137 44.3899 14.8103C44.0661 14.8158 43.7446 14.7378 43.4446 14.5811C43.1446 14.4243 42.872 14.1919 42.643 13.8976C42.414 13.6032 42.2332 13.2529 42.1112 12.8673C41.9892 12.4817 41.9286 12.0686 41.9329 11.6524C41.9163 11.2439 41.9643 10.8354 42.0739 10.4514C42.1836 10.0674 42.3525 9.71591 42.5707 9.41811C42.7888 9.12031 43.0516 8.88237 43.3433 8.71862C43.6349 8.55487 43.9493 8.46871 44.2675 8.46533C44.74 8.48108 45.1972 8.68365 45.5768 9.04544C45.9565 9.40722 46.2401 9.91064 46.3891 10.4871L46.5024 10.8483L43.1886 12.5963C43.2903 12.8937 43.4592 13.145 43.6734 13.3175C43.8877 13.49 44.1373 13.5757 44.3899 13.5634C44.6348 13.5663 44.8761 13.4879 45.0905 13.3358C45.305 13.1837 45.4852 12.9631 45.6139 12.6953V12.6953ZM43.0118 11.53L45.2286 10.3647C45.1441 10.1519 45.0136 9.97484 44.8528 9.85494C44.692 9.73505 44.5076 9.67739 44.3219 9.68888C44.1401 9.69698 43.9613 9.75189 43.7963 9.85037C43.6313 9.94885 43.4833 10.0889 43.3611 10.2622C43.239 10.4355 43.1451 10.6386 43.0851 10.8593C43.0251 11.0801 43.0002 11.3141 43.0118 11.5475V11.53Z" fill="#EA4335"/>
</svg>
