<svg width="221" height="53" viewBox="0 0 221 53" fill="none" xmlns="http://www.w3.org/2000/svg">
<path d="M40.801 43.0728C46.3702 40.729 46.4054 35.8811 46.4054 35.8811V31.8H33.3128C33.3128 31.8 33.3128 33.909 33.3128 37.2466C33.3128 40.1656 30.9473 40.9442 28.8207 39.7782C28.1706 39.4221 27.446 38.9683 26.6941 38.4479V38.4557C26.6941 38.4596 35.1653 45.4557 40.801 43.0728Z" fill="#0C6738"/>
<path d="M13.6602 26.5099C10.343 30.6887 8.36126 34.6602 6.97876 37.8765C10.484 41.7502 15.0231 45.9408 20.4747 49.3449C32.6431 56.9357 46.4093 52.5769 46.4093 37.4187V35.8849C46.4093 35.8849 46.4602 40.5646 40.8206 42.7362C34.9107 45.0174 26.694 38.4634 26.694 38.4634V38.4556C22.7149 35.7441 17.5766 31.037 13.6602 26.5099Z" fill="#008041"/>
<path d="M20.475 3.65127C20.3614 3.71779 20.2479 3.79605 20.1343 3.8743C24.3993 1.40533 33.3796 2.29745 33.3796 12.0051V21.2002H43.5584H46.4095V15.5853C46.4095 0.415393 32.6433 -3.93172 20.475 3.65127Z" fill="#44B051"/>
<path d="M20.1343 3.87424C11.201 9.53996 4.75845 17.3264 1.33158 22.1235V22.1274C0.477803 23.3717 0 24.8703 0 26.498C0 28.1257 0.477803 29.6243 1.33158 30.8686C1.33158 30.8764 1.33158 30.8764 1.33158 30.8764C2.72583 32.8289 4.61746 35.2822 6.97906 37.8764C13.3354 22.6439 26.1499 14.6696 28.8209 13.2258C30.9475 12.0637 33.3131 12.8267 33.3131 15.7574C33.3131 15.9726 33.3131 16.1682 33.3131 16.3717L33.3757 20.8362V12.005C33.3757 2.29347 24.3954 1.40135 20.1343 3.87424Z" fill="#01A04E"/>
<path d="M219.836 11.936C219.601 11.349 218.387 9.27484 214.431 9.27484V37.0994H220.15V13.8927C220.15 13.1883 220.072 12.523 219.836 11.936Z" fill="white"/>
<path d="M53.0481 26.7677C53.0481 25.2806 53.2831 23.9109 53.7923 22.6195C54.2624 21.328 54.9674 20.1931 55.8684 19.2539C56.7693 18.3147 57.8269 17.532 59.1195 16.9841C60.4122 16.4362 61.8615 16.1232 63.5066 16.1232C64.5643 16.1232 65.5827 16.2014 66.4836 16.3971C67.3845 16.5928 68.2463 16.8667 69.0689 17.2189L67.8938 21.7976C67.3845 21.602 66.797 21.4063 66.1311 21.2498C65.4652 21.0932 64.7601 21.015 63.9375 21.015C62.2532 21.015 60.9997 21.5237 60.138 22.5803C59.3154 23.637 58.8845 25.0067 58.8845 26.7286C58.8845 28.5288 59.2762 29.9376 60.0596 30.9551C60.843 31.9726 62.214 32.4422 64.1726 32.4422C64.8776 32.4422 65.6219 32.3639 66.4053 32.2465C67.1887 32.1291 67.9329 31.8943 68.5988 31.6204L69.4214 36.3165C68.7555 36.5904 67.9329 36.8252 66.9145 37.0209C65.8961 37.2166 64.7993 37.334 63.6242 37.334C61.744 37.334 60.1771 37.06 58.8453 36.5122C57.5135 35.9643 56.4168 35.2207 55.555 34.2424C54.6933 33.3031 54.0665 32.1683 53.6748 30.8768C53.244 29.7028 53.0481 28.294 53.0481 26.7677Z" fill="white"/>
<path d="M91.3573 26.7286C91.3573 28.3331 91.1223 29.7811 90.6522 31.1117C90.1822 32.4422 89.5163 33.5771 88.6545 34.5163C87.7928 35.4556 86.7351 36.16 85.5209 36.6687C84.3066 37.1775 82.9356 37.4514 81.4079 37.4514C79.9195 37.4514 78.5485 37.1775 77.3342 36.6687C76.1199 36.16 75.0623 35.4556 74.2397 34.5163C73.3388 33.5771 72.6729 32.4422 72.1637 31.1117C71.6936 29.7811 71.4194 28.3331 71.4194 26.7286C71.4194 25.1632 71.6545 23.6761 72.1637 22.3847C72.6729 21.0933 73.3388 19.9584 74.2397 19.0191C75.1406 18.0799 76.1591 17.3755 77.3734 16.8668C78.5877 16.358 79.9195 16.1232 81.3688 16.1232C82.8573 16.1232 84.1891 16.358 85.4033 16.8668C86.6176 17.3755 87.6752 18.1191 88.537 19.0191C89.4379 19.9584 90.1038 21.0541 90.5739 22.3847C91.1223 23.6761 91.3573 25.1632 91.3573 26.7286ZM85.5209 26.7286C85.5209 24.9676 85.1683 23.5587 84.4632 22.5804C83.7582 21.5629 82.7397 21.0541 81.4471 21.0541C80.1545 21.0541 79.136 21.5629 78.431 22.5804C77.6867 23.5979 77.3342 24.9676 77.3342 26.7286C77.3342 28.4896 77.6867 29.8985 78.431 30.9551C79.136 32.0117 80.1545 32.5205 81.4471 32.5205C82.7397 32.5205 83.7582 32.0117 84.4632 30.9551C85.1683 29.8985 85.5209 28.4896 85.5209 26.7286Z" fill="white"/>
<path d="M123.006 37.0994C121.675 34.4774 120.343 31.4249 119.011 27.9028C117.679 24.3807 116.387 20.5456 115.172 16.4365H121.283C121.518 17.454 121.831 18.5497 122.184 19.7629C122.536 20.9369 122.889 22.1501 123.281 23.3632C123.633 24.5764 124.025 25.7896 124.377 26.9245C124.769 28.0985 125.122 29.116 125.474 30.0552C125.827 29.116 126.179 28.0594 126.532 26.9245C126.924 25.7896 127.315 24.5764 127.668 23.3632C128.059 22.1501 128.412 20.9369 128.765 19.7629C129.117 18.5497 129.391 17.454 129.665 16.4365H135.58C134.366 20.5847 133.112 24.4199 131.742 27.9028C130.41 31.4249 129.078 34.4774 127.746 37.0994H123.006Z" fill="white"/>
<path d="M136.834 26.9243C136.834 25.1241 137.108 23.5587 137.657 22.2282C138.205 20.8976 138.949 19.7627 139.811 18.8626C140.712 18.0016 141.77 17.2972 142.906 16.8276C144.081 16.358 145.256 16.1232 146.509 16.1232C149.369 16.1232 151.641 16.9842 153.325 18.7452C154.97 20.5062 155.793 23.0891 155.793 26.4938C155.793 26.8069 155.793 27.1982 155.754 27.5896C155.714 27.9809 155.714 28.3331 155.675 28.6462H142.671C142.788 29.8202 143.337 30.7594 144.316 31.4639C145.295 32.1683 146.588 32.5205 148.233 32.5205C149.29 32.5205 150.309 32.4422 151.327 32.2465C152.346 32.0509 153.168 31.8161 153.795 31.5421L154.579 36.1991C154.265 36.3557 153.873 36.5122 153.325 36.6296C152.816 36.7861 152.267 36.9035 151.641 37.0209C151.014 37.1383 150.309 37.2166 149.604 37.334C148.899 37.4123 148.155 37.4514 147.449 37.4514C145.608 37.4514 144.042 37.1775 142.71 36.6296C141.378 36.0817 140.242 35.3773 139.341 34.4381C138.479 33.4989 137.814 32.4031 137.383 31.1117C137.069 29.7811 136.834 28.4114 136.834 26.9243ZM150.309 24.7328C150.27 24.224 150.191 23.7544 150.074 23.3239C149.917 22.8543 149.721 22.463 149.408 22.1108C149.134 21.7585 148.742 21.4455 148.272 21.2107C147.841 20.9759 147.254 20.8585 146.588 20.8585C145.961 20.8585 145.373 20.9759 144.943 21.1715C144.473 21.4063 144.12 21.6803 143.807 22.0325C143.493 22.3847 143.258 22.8152 143.102 23.2848C142.945 23.7544 142.827 24.224 142.749 24.7328H150.309Z" fill="white"/>
<path d="M181.175 32.7949C182.233 32.7949 182.977 32.6775 183.408 32.4818C183.839 32.2861 184.074 31.8948 184.074 31.2686C184.074 30.799 183.76 30.4077 183.212 30.0555C182.624 29.7032 181.802 29.3119 180.627 28.8814C179.726 28.5292 178.903 28.2161 178.198 27.8248C177.454 27.4726 176.827 27.0421 176.318 26.5334C175.809 26.0246 175.417 25.4376 175.143 24.7332C174.869 24.0288 174.712 23.207 174.712 22.2286C174.712 20.3501 175.417 18.8239 176.827 17.7281C178.237 16.6324 180.157 16.0845 182.624 16.0845C183.878 16.0845 185.053 16.2019 186.15 16.3976C187.286 16.6324 188.187 16.8672 188.853 17.1411L187.834 21.6024C187.168 21.3676 186.424 21.172 185.68 20.9763C184.896 20.8198 183.995 20.7024 183.055 20.7024C181.253 20.7024 180.353 21.2111 180.353 22.1895C180.353 22.4243 180.392 22.6199 180.47 22.8156C180.548 23.0113 180.705 23.1678 180.94 23.3244C181.175 23.4809 181.488 23.6766 181.88 23.8722C182.272 24.0679 182.781 24.3027 183.408 24.5375C184.661 25.0071 185.68 25.4767 186.502 25.9072C187.325 26.3768 187.952 26.8464 188.461 27.3552C188.931 27.9031 189.283 28.4901 189.479 29.1162C189.675 29.7424 189.753 30.5251 189.753 31.3469C189.753 33.3427 189.009 34.8299 187.521 35.8865C186.032 36.904 183.917 37.4127 181.136 37.4127C179.334 37.4127 177.846 37.2562 176.671 36.9431C175.456 36.63 174.634 36.3561 174.164 36.1604L175.143 31.5034C176.122 31.8948 177.101 32.2078 178.12 32.4035C179.177 32.6775 180.196 32.7949 181.175 32.7949Z" fill="white"/>
<path d="M210.828 29.8594V24.224C210.828 23.05 210.671 21.9542 210.397 20.9759C210.122 19.9584 209.613 19.0974 208.947 18.3539C208.242 17.6494 207.341 17.1016 206.245 16.7102C205.109 16.3189 203.699 16.1232 202.014 16.1232C201.348 16.1232 200.682 16.1623 200.056 16.2015C199.39 16.2797 198.763 16.358 198.175 16.4363C197.588 16.5145 197.039 16.6319 196.53 16.7494C196.06 16.8668 195.629 16.9842 195.277 17.0624L196.021 21.6803C196.726 21.4063 197.549 21.2107 198.489 21.0933C199.429 20.9367 200.408 20.8976 201.387 20.8976C202.837 20.8976 203.894 21.1715 204.482 21.7585C205.069 22.3456 205.383 23.1283 205.383 24.1066V24.6545C204.991 24.5762 204.56 24.4588 203.973 24.4197C203.385 24.3414 202.719 24.3414 201.975 24.3414C200.878 24.3414 199.821 24.4588 198.802 24.6545C197.784 24.8893 196.883 25.2415 196.06 25.7111C195.277 26.2199 194.65 26.846 194.141 27.6678C193.671 28.4897 193.436 29.5071 193.436 30.6812C193.436 31.8943 193.632 32.951 194.063 33.7728C194.493 34.6337 195.081 35.299 195.825 35.8469C196.609 36.3557 197.51 36.747 198.606 36.9818C199.664 37.2166 200.839 37.334 202.171 37.334C203.15 37.334 204.09 37.2949 204.913 37.2558C208.791 36.7861 210.828 34.3598 210.828 29.8594ZM200.016 32.364C199.429 32.0117 199.116 31.3856 199.116 30.4855C199.116 30.0159 199.194 29.6245 199.429 29.3115C199.625 29.0375 199.899 28.7636 200.251 28.6071C200.604 28.4505 201.035 28.294 201.505 28.2549C202.014 28.1766 202.484 28.1374 203.033 28.1374C203.385 28.1374 203.855 28.1766 204.286 28.2157C204.756 28.2548 205.109 28.3331 205.344 28.3723V30.8377C205.344 31.9726 204.756 32.7553 203.346 32.8727C203.072 32.8727 202.758 32.8727 202.484 32.8727C201.427 32.8727 200.604 32.7162 200.016 32.364Z" fill="white"/>
<path d="M100.719 37.0993V26.1809C100.719 24.3415 100.954 23.011 101.463 22.2674C101.894 21.563 102.717 21.1717 103.853 21.1325H103.892C103.931 21.1325 104.009 21.1325 104.048 21.1325C104.127 21.1325 104.166 21.1325 104.205 21.1325H104.244C105.38 21.2108 106.203 21.563 106.634 22.2674C107.104 23.0501 107.378 24.3415 107.378 26.1809V37.0993H113.097V25.4764C113.097 24.0676 112.94 22.8153 112.666 21.7195C112.392 20.5846 111.883 19.6063 111.217 18.7845C110.551 17.9626 109.65 17.3365 108.514 16.8669C107.378 16.4364 105.929 16.2016 104.205 16.2016H103.813C102.09 16.2016 100.68 16.4364 99.5046 16.8669C98.3686 17.2974 97.4677 17.9626 96.8018 18.7845C96.1359 19.6063 95.6659 20.5846 95.3525 21.7195C95.0783 22.8544 94.9216 24.1067 94.9216 25.4764V37.0993H100.719Z" fill="white"/>
<path d="M168.21 16.2016C166.486 16.2016 165.076 16.4364 163.901 16.8669C162.765 17.2974 161.864 17.9626 161.198 18.7845C160.532 19.6063 160.062 20.5846 159.749 21.7195C159.475 22.8544 159.318 24.1067 159.318 25.4764V37.0993H165.037V26.1809C165.037 24.3415 165.272 23.011 165.781 22.2674C166.212 21.563 167.034 21.1717 168.17 21.1325H168.21C168.327 21.1325 168.405 21.1325 168.523 21.1325C168.719 21.1325 168.915 21.1325 169.15 21.1325H171.069V16.2407H168.21V16.2016Z" fill="white"/>
</svg>
