<svg width="48" height="48" viewBox="0 0 48 48" fill="none" xmlns="http://www.w3.org/2000/svg">
<rect width="48" height="48" rx="24" fill="#00A04D"/>
<path d="M18.1943 32.4853C17.4555 33.2241 16.2535 33.2241 15.5147 32.4853C14.7759 31.7465 14.7759 30.5445 15.5147 29.8057L29.8057 15.5147C30.5445 14.7759 31.7465 14.7759 32.4853 15.5147C33.2241 16.2535 33.2241 17.4555 32.4853 18.1943L18.1943 32.4853Z" fill="white"/>
<path d="M29.8057 32.4853C30.5445 33.224 31.7465 33.224 32.4853 32.4853C33.2241 31.7465 33.2241 30.5445 32.4853 29.8057L18.1943 15.5147C17.4555 14.7759 16.2535 14.7759 15.5147 15.5147C14.7759 16.2535 14.7759 17.4555 15.5147 18.1943L29.8057 32.4853Z" fill="white"/>
</svg>
