<svg width="48" height="48" viewBox="0 0 48 48" fill="none" xmlns="http://www.w3.org/2000/svg">
<rect width="48" height="48" rx="24" fill="#00A04D"/>
<path d="M13.8947 25.8948C12.8499 25.8948 12 25.0448 12 24C12 22.9552 12.8499 22.1053 13.8947 22.1053H34.1053C35.1501 22.1053 36 22.9552 36 24C36 25.0448 35.1501 25.8948 34.1053 25.8948H13.8947Z" fill="white"/>
<path d="M13.8947 17.0526C12.8499 17.0526 12 16.2027 12 15.1579C12 14.113 12.8499 13.2632 13.8947 13.2632H34.1053C35.1501 13.2632 36 14.1131 36 15.1579C36 16.2027 35.1501 17.0526 34.1053 17.0526H13.8947Z" fill="white"/>
<path d="M13.8947 34.7369C12.8499 34.7369 12 33.8869 12 32.8421C12 31.7973 12.8499 30.9474 13.8947 30.9474H34.1053C35.1501 30.9474 36 31.7973 36 32.8421C36 33.8869 35.1501 34.7369 34.1053 34.7369H13.8947Z" fill="white"/>
</svg>
