<svg width="184" height="94" viewBox="0 0 184 94" fill="none" xmlns="http://www.w3.org/2000/svg">
<path d="M49.9012 77.4535C50.0952 76.8488 50.9401 76.8488 51.1341 77.4535L52.7005 82.3346C52.7872 82.605 53.0361 82.7881 53.3169 82.7881H58.3859C59.0138 82.7881 59.2748 83.6016 58.7668 83.9753L54.666 86.992C54.4388 87.1591 54.3437 87.4553 54.4305 87.7257L55.9969 92.6068C56.1909 93.2114 55.5075 93.7142 54.9995 93.3405L50.8986 90.3238C50.6714 90.1567 50.3638 90.1567 50.1367 90.3238L46.0358 93.3405C45.5278 93.7142 44.8443 93.2114 45.0384 92.6068L46.6048 87.7257C46.6915 87.4553 46.5965 87.1591 46.3693 86.992L42.2684 83.9753C41.7604 83.6016 42.0215 82.7881 42.6494 82.7881H47.7184C47.9992 82.7881 48.248 82.605 48.3348 82.3346L49.9012 77.4535Z" fill="#FFDA15"/>
<path d="M91.3836 77.4535C91.5776 76.8488 92.4224 76.8488 92.6164 77.4535L94.1828 82.3346C94.2696 82.605 94.5185 82.7881 94.7993 82.7881H99.8682C100.496 82.7881 100.757 83.6016 100.249 83.9753L96.1483 86.992C95.9212 87.1591 95.8261 87.4553 95.9129 87.7257L97.4793 92.6068C97.6733 93.2114 96.9898 93.7142 96.4818 93.3405L92.381 90.3238C92.1538 90.1567 91.8462 90.1567 91.619 90.3238L87.5181 93.3405C87.0102 93.7142 86.3267 93.2114 86.5207 92.6068L88.0871 87.7257C88.1739 87.4553 88.0788 87.1591 87.8517 86.992L83.7508 83.9753C83.2428 83.6016 83.5039 82.7881 84.1318 82.7881H89.2007C89.4815 82.7881 89.7304 82.605 89.8172 82.3346L91.3836 77.4535Z" fill="#FFDA15"/>
<path d="M70.6416 77.4535C70.8356 76.8488 71.6804 76.8488 71.8745 77.4535L73.4409 82.3346C73.5276 82.605 73.7765 82.7881 74.0573 82.7881H79.1263C79.7541 82.7881 80.0152 83.6016 79.5072 83.9753L75.4064 86.992C75.1792 87.1591 75.0841 87.4553 75.1709 87.7257L76.7373 92.6068C76.9313 93.2114 76.2479 93.7142 75.7399 93.3405L71.639 90.3238C71.4118 90.1567 71.1042 90.1567 70.877 90.3238L66.7762 93.3405C66.2682 93.7142 65.5847 93.2114 65.7788 92.6068L67.3451 87.7257C67.4319 87.4553 67.3369 87.1591 67.1097 86.992L63.0088 83.9753C62.5008 83.6016 62.7619 82.7881 63.3898 82.7881H68.4587C68.7396 82.7881 68.9884 82.605 69.0752 82.3346L70.6416 77.4535Z" fill="#FFDA15"/>
<path d="M112.125 77.4535C112.319 76.8488 113.164 76.8488 113.358 77.4535L114.925 82.3346C115.011 82.605 115.26 82.7881 115.541 82.7881H120.61C121.238 82.7881 121.499 83.6016 120.991 83.9753L116.89 86.992C116.663 87.1591 116.568 87.4553 116.655 87.7257L118.221 92.6068C118.415 93.2114 117.732 93.7142 117.224 93.3405L113.123 90.3238C112.896 90.1567 112.588 90.1567 112.361 90.3238L108.26 93.3405C107.752 93.7142 107.069 93.2114 107.263 92.6068L108.829 87.7257C108.916 87.4553 108.821 87.1591 108.594 86.992L104.493 83.9753C103.985 83.6016 104.246 82.7881 104.874 82.7881H109.943C110.223 82.7881 110.472 82.605 110.559 82.3346L112.125 77.4535Z" fill="#FFDA15"/>
<path d="M133.342 77.6062C133.387 77.4646 133.577 77.4646 133.623 77.6063L135.189 82.4874C135.341 82.9614 135.78 83.2881 136.282 83.2881H141.351C141.395 83.2881 141.42 83.3007 141.438 83.3147C141.459 83.3311 141.479 83.3582 141.491 83.3943C141.503 83.4304 141.502 83.4656 141.494 83.4936C141.487 83.5178 141.472 83.5453 141.435 83.5725L137.334 86.5892C136.933 86.8848 136.767 87.4054 136.919 87.8785L138.486 92.7596C138.5 92.806 138.496 92.8385 138.488 92.8622C138.478 92.8893 138.459 92.9167 138.43 92.9378C138.401 92.9588 138.371 92.968 138.346 92.9688C138.326 92.9694 138.297 92.9649 138.26 92.9378L134.16 89.9211C133.756 89.6243 133.209 89.6243 132.805 89.9211L128.704 92.9378C128.667 92.9649 128.639 92.9694 128.618 92.9688C128.594 92.968 128.563 92.9588 128.535 92.9378C128.506 92.9167 128.487 92.8893 128.477 92.8622C128.469 92.8385 128.464 92.806 128.479 92.7596L130.046 87.8785C130.197 87.4054 130.032 86.8848 129.63 86.5892L125.529 83.5725C125.492 83.5453 125.477 83.5178 125.47 83.4936C125.462 83.4656 125.462 83.4304 125.474 83.3943C125.485 83.3582 125.506 83.3311 125.527 83.3147C125.544 83.3007 125.57 83.2881 125.614 83.2881H130.683C131.185 83.2881 131.623 82.9614 131.776 82.4874L133.342 77.6062Z" stroke="#FFDA15"/>
<path d="M129.001 93.3405L133.101 90.3238C133.215 90.2403 133.349 90.1985 133.482 90.1985V77C133.223 77 132.963 77.1512 132.866 77.4535L131.3 82.3346C131.213 82.605 130.964 82.7881 130.683 82.7881H125.614C124.986 82.7881 124.725 83.6016 125.233 83.9753L129.334 86.992C129.561 87.1591 129.656 87.4553 129.569 87.7257L128.003 92.6068C127.809 93.2114 128.493 93.7142 129.001 93.3405Z" fill="#FFDA15"/>
<path d="M77.1623 31V26.24H64.4023V21.74L73.6223 2.2H79.1223L69.9023 21.74H77.1623V14.24H82.0423V21.74H84.7423V26.24H82.0423V31H77.1623ZM88.357 36.1L88.637 34.02C89.2504 34.0733 89.737 33.9667 90.097 33.7C90.457 33.4467 90.697 33.08 90.817 32.6C90.9504 32.1333 90.9837 31.6 90.917 31H88.357V25.86H93.297V31.2C93.297 32.9467 92.8837 34.2667 92.057 35.16C91.2304 36.0533 89.997 36.3667 88.357 36.1ZM110.325 31.6C108.419 31.6 106.725 31.2133 105.245 30.44C103.765 29.6667 102.605 28.5933 101.765 27.22C100.925 25.8467 100.505 24.2733 100.505 22.5C100.505 20.9133 100.872 19.44 101.605 18.08C102.339 16.72 103.412 15.6333 104.825 14.82L104.725 16.36C103.619 15.52 102.759 14.5533 102.145 13.46C101.545 12.3533 101.245 11.1133 101.245 9.74C101.245 8.08667 101.632 6.65333 102.405 5.44C103.192 4.22666 104.265 3.28667 105.625 2.62C106.985 1.94 108.552 1.6 110.325 1.6C112.099 1.6 113.665 1.94 115.025 2.62C116.399 3.28667 117.472 4.22666 118.245 5.44C119.032 6.65333 119.425 8.08667 119.425 9.74C119.425 11.1133 119.132 12.3467 118.545 13.44C117.972 14.5333 117.099 15.52 115.925 16.4L115.905 14.84C117.292 15.6267 118.352 16.7067 119.085 18.08C119.832 19.44 120.205 20.9133 120.205 22.5C120.205 24.2733 119.779 25.8467 118.925 27.22C118.085 28.5933 116.919 29.6667 115.425 30.44C113.945 31.2133 112.245 31.6 110.325 31.6ZM110.325 27.06C111.739 27.06 112.885 26.6733 113.765 25.9C114.659 25.1267 115.105 23.9933 115.105 22.5C115.105 21.0067 114.665 19.8733 113.785 19.1C112.905 18.3133 111.752 17.92 110.325 17.92C108.912 17.92 107.772 18.3133 106.905 19.1C106.039 19.8733 105.605 21.0067 105.605 22.5C105.605 23.9933 106.039 25.1267 106.905 25.9C107.772 26.6733 108.912 27.06 110.325 27.06ZM110.325 13.34C111.512 13.34 112.472 13.0467 113.205 12.46C113.952 11.86 114.325 10.9533 114.325 9.74C114.325 8.52667 113.952 7.62667 113.205 7.04C112.472 6.44 111.512 6.14 110.325 6.14C109.152 6.14 108.192 6.44 107.445 7.04C106.712 7.62667 106.345 8.52667 106.345 9.74C106.345 10.9533 106.712 11.86 107.445 12.46C108.192 13.0467 109.152 13.34 110.325 13.34Z" fill="#050D18"/>
<path d="M40 62V59.992H34.8V58.408L38.544 50.48H40.456L36.712 58.408H40V55.288H41.696V58.408H42.84V59.992H41.696V62H40ZM46.7686 62V52.32L44.6006 53.64V51.776L46.7686 50.48H48.4726V62H46.7686ZM55.5266 62.24C54.7426 62.24 54.0493 62.0693 53.4466 61.728C52.844 61.3813 52.3693 60.9067 52.0226 60.304C51.6813 59.7013 51.5106 59.008 51.5106 58.224V54.256C51.5106 53.472 51.6813 52.7787 52.0226 52.176C52.3693 51.5733 52.844 51.1013 53.4466 50.76C54.0493 50.4133 54.7426 50.24 55.5266 50.24C56.3106 50.24 57.004 50.4133 57.6066 50.76C58.2093 51.1013 58.6813 51.5733 59.0226 52.176C59.3693 52.7787 59.5426 53.472 59.5426 54.256V58.224C59.5426 59.008 59.3693 59.7013 59.0226 60.304C58.6813 60.9067 58.2093 61.3813 57.6066 61.728C57.004 62.0693 56.3106 62.24 55.5266 62.24ZM55.5266 60.64C55.9533 60.64 56.34 60.5387 56.6866 60.336C57.0386 60.128 57.3186 59.8507 57.5266 59.504C57.7346 59.152 57.8386 58.76 57.8386 58.328V54.136C57.8386 53.7093 57.7346 53.3227 57.5266 52.976C57.3186 52.624 57.0386 52.3467 56.6866 52.144C56.34 51.936 55.9533 51.832 55.5266 51.832C55.1 51.832 54.7106 51.936 54.3586 52.144C54.012 52.3467 53.7346 52.624 53.5266 52.976C53.3186 53.3227 53.2146 53.7093 53.2146 54.136V58.328C53.2146 58.76 53.3186 59.152 53.5266 59.504C53.7346 59.8507 54.012 60.128 54.3586 60.336C54.7106 60.5387 55.1 60.64 55.5266 60.64ZM69.6914 62.24C68.918 62.24 68.206 62.1067 67.5554 61.84C66.9047 61.568 66.3394 61.1733 65.8594 60.656C65.3794 60.1387 65.006 59.5093 64.7394 58.768C64.4727 58.0267 64.3394 57.184 64.3394 56.24C64.3394 54.9973 64.566 53.9307 65.0194 53.04C65.4727 52.144 66.102 51.456 66.9074 50.976C67.7127 50.4907 68.6407 50.248 69.6914 50.248C71.046 50.248 72.126 50.5627 72.9314 51.192C73.742 51.8213 74.294 52.6907 74.5874 53.8L72.8914 54.104C72.6567 53.416 72.278 52.8667 71.7554 52.456C71.2327 52.0453 70.5767 51.8373 69.7874 51.832C68.9714 51.8267 68.2914 52.008 67.7474 52.376C67.2087 52.744 66.8034 53.2613 66.5314 53.928C66.2594 54.5893 66.1207 55.36 66.1154 56.24C66.11 57.12 66.2434 57.8907 66.5154 58.552C66.7874 59.208 67.1954 59.72 67.7394 60.088C68.2887 60.456 68.9714 60.6427 69.7874 60.648C70.4434 60.6587 71.006 60.5387 71.4754 60.288C71.95 60.032 72.326 59.6587 72.6034 59.168C72.8807 58.6773 73.0594 58.0747 73.1394 57.36H70.8994V56.016H74.9154C74.926 56.112 74.934 56.24 74.9394 56.4C74.9447 56.5547 74.9474 56.6533 74.9474 56.696C74.9474 57.7627 74.742 58.7147 74.3314 59.552C73.9207 60.3893 73.3234 61.048 72.5394 61.528C71.7554 62.0027 70.806 62.24 69.6914 62.24ZM80.2939 62.24C79.4299 62.24 78.6805 62.0453 78.0459 61.656C77.4112 61.2667 76.9205 60.7307 76.5739 60.048C76.2325 59.36 76.0619 58.568 76.0619 57.672C76.0619 56.7707 76.2379 55.9787 76.5899 55.296C76.9419 54.608 77.4352 54.0747 78.0699 53.696C78.7045 53.312 79.4459 53.12 80.2939 53.12C81.1579 53.12 81.9072 53.3147 82.5419 53.704C83.1765 54.0933 83.6672 54.6293 84.0139 55.312C84.3605 55.9947 84.5339 56.7813 84.5339 57.672C84.5339 58.5733 84.3579 59.368 84.0059 60.056C83.6592 60.7387 83.1685 61.2747 82.5339 61.664C81.8992 62.048 81.1525 62.24 80.2939 62.24ZM80.2939 60.664C81.1205 60.664 81.7365 60.3867 82.1419 59.832C82.5525 59.272 82.7579 58.552 82.7579 57.672C82.7579 56.7707 82.5499 56.0507 82.1339 55.512C81.7232 54.968 81.1099 54.696 80.2939 54.696C79.7339 54.696 79.2725 54.824 78.9099 55.08C78.5472 55.3307 78.2779 55.68 78.1019 56.128C77.9259 56.5707 77.8379 57.0853 77.8379 57.672C77.8379 58.5787 78.0459 59.304 78.4619 59.848C78.8779 60.392 79.4885 60.664 80.2939 60.664ZM90.0439 62.24C89.1799 62.24 88.4305 62.0453 87.7959 61.656C87.1612 61.2667 86.6705 60.7307 86.3239 60.048C85.9825 59.36 85.8119 58.568 85.8119 57.672C85.8119 56.7707 85.9879 55.9787 86.3399 55.296C86.6919 54.608 87.1852 54.0747 87.8199 53.696C88.4545 53.312 89.1959 53.12 90.0439 53.12C90.9079 53.12 91.6572 53.3147 92.2919 53.704C92.9265 54.0933 93.4172 54.6293 93.7639 55.312C94.1105 55.9947 94.2839 56.7813 94.2839 57.672C94.2839 58.5733 94.1079 59.368 93.7559 60.056C93.4092 60.7387 92.9185 61.2747 92.2839 61.664C91.6492 62.048 90.9025 62.24 90.0439 62.24ZM90.0439 60.664C90.8705 60.664 91.4865 60.3867 91.8919 59.832C92.3025 59.272 92.5079 58.552 92.5079 57.672C92.5079 56.7707 92.2999 56.0507 91.8839 55.512C91.4732 54.968 90.8599 54.696 90.0439 54.696C89.4839 54.696 89.0225 54.824 88.6599 55.08C88.2972 55.3307 88.0279 55.68 87.8519 56.128C87.6759 56.5707 87.5879 57.0853 87.5879 57.672C87.5879 58.5787 87.7959 59.304 88.2119 59.848C88.6279 60.392 89.2385 60.664 90.0439 60.664ZM99.6019 66.08C99.1379 66.08 98.6872 66.008 98.2499 65.864C97.8179 65.72 97.4232 65.5067 97.0659 65.224C96.7085 64.9467 96.4125 64.6027 96.1779 64.192L97.7219 63.408C97.9085 63.776 98.1752 64.0453 98.5219 64.216C98.8685 64.3867 99.2339 64.472 99.6179 64.472C100.093 64.472 100.498 64.3867 100.834 64.216C101.17 64.0507 101.423 63.8 101.594 63.464C101.77 63.128 101.855 62.712 101.85 62.216V59.8H102.05V53.36H103.53V62.232C103.53 62.4613 103.522 62.68 103.506 62.888C103.49 63.096 103.461 63.304 103.418 63.512C103.295 64.0933 103.061 64.5733 102.714 64.952C102.373 65.3307 101.935 65.6133 101.402 65.8C100.874 65.9867 100.274 66.08 99.6019 66.08ZM99.4739 62.24C98.6685 62.24 97.9725 62.04 97.3859 61.64C96.8045 61.24 96.3539 60.696 96.0339 60.008C95.7192 59.3147 95.5619 58.536 95.5619 57.672C95.5619 56.8027 95.7219 56.0267 96.0419 55.344C96.3619 54.656 96.8152 54.1147 97.4019 53.72C97.9939 53.32 98.6952 53.12 99.5059 53.12C100.322 53.12 101.007 53.32 101.562 53.72C102.122 54.1147 102.543 54.656 102.826 55.344C103.114 56.032 103.258 56.808 103.258 57.672C103.258 58.536 103.114 59.312 102.826 60C102.538 60.688 102.114 61.2347 101.554 61.64C100.994 62.04 100.301 62.24 99.4739 62.24ZM99.7059 60.728C100.255 60.728 100.703 60.5973 101.05 60.336C101.397 60.0747 101.65 59.7147 101.81 59.256C101.97 58.7973 102.05 58.2693 102.05 57.672C102.05 57.0747 101.967 56.5467 101.802 56.088C101.642 55.6293 101.391 55.272 101.05 55.016C100.714 54.76 100.285 54.632 99.7619 54.632C99.2072 54.632 98.7512 54.768 98.3939 55.04C98.0365 55.312 97.7699 55.6773 97.5939 56.136C97.4232 56.5947 97.3379 57.1067 97.3379 57.672C97.3379 58.2427 97.4232 58.76 97.5939 59.224C97.7699 59.6827 98.0312 60.048 98.3779 60.32C98.7299 60.592 99.1725 60.728 99.7059 60.728ZM105.936 62V50.24H107.608V62H105.936ZM113.843 62.24C112.984 62.24 112.229 62.0533 111.579 61.68C110.933 61.3013 110.429 60.776 110.067 60.104C109.709 59.4267 109.531 58.6427 109.531 57.752C109.531 56.808 109.707 55.9893 110.059 55.296C110.416 54.6027 110.912 54.0667 111.547 53.688C112.181 53.3093 112.92 53.12 113.763 53.12C114.643 53.12 115.392 53.3253 116.011 53.736C116.629 54.1413 117.091 54.72 117.395 55.472C117.704 56.224 117.827 57.1173 117.763 58.152H116.091V57.544C116.08 56.5413 115.888 55.8 115.515 55.32C115.147 54.84 114.584 54.6 113.827 54.6C112.989 54.6 112.36 54.864 111.939 55.392C111.517 55.92 111.307 56.6827 111.307 57.68C111.307 58.6293 111.517 59.3653 111.939 59.888C112.36 60.4053 112.968 60.664 113.763 60.664C114.285 60.664 114.736 60.5467 115.115 60.312C115.499 60.072 115.797 59.7307 116.011 59.288L117.651 59.808C117.315 60.5813 116.805 61.1813 116.123 61.608C115.44 62.0293 114.68 62.24 113.843 62.24ZM110.763 58.152V56.848H116.931V58.152H110.763ZM119.398 57.624V56.28H124.198V57.624H119.398ZM126.276 62V53.36H127.764V55.456L127.556 55.184C127.663 54.9067 127.802 54.6533 127.972 54.424C128.143 54.1893 128.34 53.9973 128.564 53.848C128.783 53.688 129.026 53.5653 129.292 53.48C129.564 53.3893 129.842 53.336 130.124 53.32C130.407 53.2987 130.679 53.312 130.94 53.36V54.928C130.658 54.8533 130.343 54.832 129.996 54.864C129.655 54.896 129.34 55.0053 129.052 55.192C128.78 55.368 128.564 55.5813 128.404 55.832C128.25 56.0827 128.138 56.3627 128.068 56.672C127.999 56.976 127.964 57.2987 127.964 57.64V62H126.276ZM136.14 62.24C135.281 62.24 134.526 62.0533 133.876 61.68C133.23 61.3013 132.726 60.776 132.363 60.104C132.006 59.4267 131.828 58.6427 131.828 57.752C131.828 56.808 132.004 55.9893 132.356 55.296C132.713 54.6027 133.209 54.0667 133.844 53.688C134.478 53.3093 135.217 53.12 136.06 53.12C136.94 53.12 137.689 53.3253 138.308 53.736C138.926 54.1413 139.388 54.72 139.692 55.472C140.001 56.224 140.124 57.1173 140.06 58.152H138.388V57.544C138.377 56.5413 138.185 55.8 137.812 55.32C137.444 54.84 136.881 54.6 136.124 54.6C135.286 54.6 134.657 54.864 134.236 55.392C133.814 55.92 133.604 56.6827 133.604 57.68C133.604 58.6293 133.814 59.3653 134.236 59.888C134.657 60.4053 135.265 60.664 136.06 60.664C136.582 60.664 137.033 60.5467 137.412 60.312C137.796 60.072 138.094 59.7307 138.308 59.288L139.948 59.808C139.612 60.5813 139.102 61.1813 138.42 61.608C137.737 62.0293 136.977 62.24 136.14 62.24ZM133.06 58.152V56.848H139.227V58.152H133.06ZM143.878 62L140.742 53.36H142.43L144.726 59.904L147.022 53.36H148.71L145.574 62H143.878ZM150.311 51.944V50.32H151.983V51.944H150.311ZM150.311 62V53.36H151.983V62H150.311ZM158.218 62.24C157.359 62.24 156.604 62.0533 155.954 61.68C155.308 61.3013 154.804 60.776 154.442 60.104C154.084 59.4267 153.906 58.6427 153.906 57.752C153.906 56.808 154.082 55.9893 154.434 55.296C154.791 54.6027 155.287 54.0667 155.922 53.688C156.556 53.3093 157.295 53.12 158.138 53.12C159.018 53.12 159.767 53.3253 160.386 53.736C161.004 54.1413 161.466 54.72 161.77 55.472C162.079 56.224 162.202 57.1173 162.138 58.152H160.466V57.544C160.455 56.5413 160.263 55.8 159.89 55.32C159.522 54.84 158.959 54.6 158.202 54.6C157.364 54.6 156.735 54.864 156.314 55.392C155.892 55.92 155.682 56.6827 155.682 57.68C155.682 58.6293 155.892 59.3653 156.314 59.888C156.735 60.4053 157.343 60.664 158.138 60.664C158.66 60.664 159.111 60.5467 159.49 60.312C159.874 60.072 160.172 59.7307 160.386 59.288L162.026 59.808C161.69 60.5813 161.18 61.1813 160.498 61.608C159.815 62.0293 159.055 62.24 158.218 62.24ZM155.138 58.152V56.848H161.306V58.152H155.138ZM165.46 62L162.82 53.352L164.476 53.36L166.284 59.288L168.108 53.36H169.548L171.372 59.288L173.18 53.36H174.828L172.188 62H170.844L168.828 55.744L166.804 62H165.46ZM179.252 62.232C178.201 62.232 177.345 62 176.684 61.536C176.023 61.072 175.617 60.4187 175.468 59.576L177.18 59.312C177.287 59.76 177.532 60.1147 177.916 60.376C178.305 60.632 178.788 60.76 179.364 60.76C179.887 60.76 180.295 60.6533 180.588 60.44C180.887 60.2267 181.036 59.9333 181.036 59.56C181.036 59.3413 180.983 59.1653 180.876 59.032C180.775 58.8933 180.559 58.7627 180.228 58.64C179.897 58.5173 179.393 58.3653 178.716 58.184C177.975 57.992 177.385 57.7867 176.948 57.568C176.516 57.344 176.207 57.0853 176.02 56.792C175.839 56.4933 175.748 56.1333 175.748 55.712C175.748 55.1893 175.887 54.7333 176.164 54.344C176.441 53.9547 176.831 53.6533 177.332 53.44C177.839 53.2267 178.431 53.12 179.108 53.12C179.769 53.12 180.359 53.224 180.876 53.432C181.393 53.64 181.812 53.936 182.132 54.32C182.452 54.6987 182.644 55.144 182.708 55.656L180.996 55.968C180.937 55.552 180.743 55.224 180.412 54.984C180.081 54.744 179.652 54.6133 179.124 54.592C178.617 54.5707 178.207 54.656 177.892 54.848C177.577 55.0347 177.42 55.2933 177.42 55.624C177.42 55.816 177.479 55.9787 177.596 56.112C177.719 56.2453 177.953 56.3733 178.3 56.496C178.647 56.6187 179.159 56.7653 179.836 56.936C180.561 57.1227 181.137 57.3307 181.564 57.56C181.991 57.784 182.295 58.0533 182.476 58.368C182.663 58.6773 182.756 59.0533 182.756 59.496C182.756 60.3493 182.444 61.0187 181.82 61.504C181.201 61.9893 180.345 62.232 179.252 62.232Z" fill="#6A7E94"/>
<g clip-path="url(#clip0_2338_9433)">
<path d="M24 56C24 55.2461 23.9293 54.4915 23.7892 53.7588C23.726 53.4272 23.4356 53.1875 23.0985 53.1875H12.0469C11.6582 53.1875 11.3438 53.502 11.3438 53.8906V58.1094C11.3438 58.498 11.6582 58.8125 12.0469 58.8125H17.7172C17.3639 59.5277 16.877 60.1483 16.3053 60.6704L20.2793 64.6445C22.566 62.4659 24 59.4003 24 56Z" fill="#6A7E94"/>
<path d="M12 49.625C13.3795 49.625 14.6916 50.0631 15.7944 50.8925C16.0731 51.102 16.4666 51.0766 16.7138 50.8273L19.7144 47.8266C19.8538 47.6872 19.9287 47.4957 19.9198 47.2986C19.9108 47.1015 19.8202 46.9175 19.6691 46.7905C17.522 44.9908 14.7981 44 12 44C7.88207 44 4.24415 46.0932 2.09357 49.2712L6.22082 53.3984C7.20547 51.1805 9.42088 49.625 12 49.625Z" fill="#6A7E94"/>
<path d="M12 68C14.6842 68 17.1559 67.1 19.1532 65.6006L15.1046 61.552C14.1792 62.073 13.1215 62.375 12 62.375C9.42088 62.375 7.20547 60.8195 6.22082 58.6016L2.09357 62.7288C4.24415 65.9068 7.88207 68 12 68Z" fill="#6A7E94"/>
<path d="M5.72738 57.0127C5.67352 56.6809 5.625 56.3467 5.625 56C5.625 55.6533 5.67352 55.3191 5.72738 54.9873L1.31531 50.5752C0.480562 52.2055 0 54.0461 0 56C0 57.9539 0.480563 59.7945 1.31536 61.4247L5.72738 57.0127Z" fill="#6A7E94"/>
</g>
<defs>
<clipPath id="clip0_2338_9433">
<rect width="24" height="24" fill="white" transform="translate(0 44)"/>
</clipPath>
</defs>
</svg>
