<svg width="24" height="22" viewBox="0 0 24 22" fill="none" xmlns="http://www.w3.org/2000/svg">
<path d="M11.1981 0.666169C11.4503 -0.119845 12.5486 -0.119842 12.8008 0.666172L14.8371 7.01162C14.9499 7.36314 15.2734 7.60113 15.6385 7.60113H22.2281C23.0444 7.60113 23.3838 8.65871 22.7234 9.14449L17.3923 13.0662C17.0969 13.2834 16.9734 13.6685 17.0862 14.02L19.1225 20.3655C19.3747 21.1515 18.4862 21.8051 17.8258 21.3193L12.4947 17.3976C12.1994 17.1804 11.7995 17.1804 11.5042 17.3976L6.17303 21.3193C5.51266 21.8051 4.62414 21.1515 4.87638 20.3655L6.91269 14.02C7.02549 13.6685 6.90192 13.2834 6.60659 13.0662L1.27547 9.14449C0.615098 8.65871 0.954485 7.60113 1.77075 7.60113H8.36038C8.72542 7.60113 9.04895 7.36314 9.16175 7.01162L11.1981 0.666169Z" fill="#FFDA15"/>
</svg>
