<svg width="23" height="22" viewBox="0 0 23 22" fill="none" xmlns="http://www.w3.org/2000/svg">
<path d="M6.8311 12.6634L6.53482 13.0662L6.8311 12.6634L1.49997 8.74173C1.21719 8.53371 1.37964 8.10113 1.69897 8.10113H8.2886C8.8743 8.10113 9.3879 7.71958 9.56606 7.1644L11.6024 0.818949C11.706 0.4959 12.1493 0.495894 12.2529 0.818951L14.2893 7.1644L14.7653 7.01162L14.2893 7.1644C14.4674 7.71958 14.981 8.10113 15.5667 8.10113H22.1563C22.4757 8.10113 22.6381 8.53371 22.3553 8.74173L17.0242 12.6634C16.5542 13.0092 16.3605 13.6187 16.5383 14.1728L18.5746 20.5183C18.6858 20.8646 18.3015 21.1013 18.0503 20.9166L12.7192 16.9949L12.4229 17.3976L12.7192 16.9949C12.2476 16.648 11.6077 16.648 11.1361 16.9949L5.80497 20.9166C5.55386 21.1013 5.16954 20.8646 5.28069 20.5183L7.317 14.1728C7.49483 13.6187 7.30114 13.0092 6.8311 12.6634Z" stroke="#FFDA15"/>
<path d="M6.10125 21.3193L11.4324 17.3976C11.58 17.289 11.7538 17.2347 11.9276 17.2347V0.0766602C11.59 0.0766683 11.2524 0.273171 11.1263 0.666169L9.08997 7.01162C8.97717 7.36314 8.65364 7.60113 8.2886 7.60113H1.69897C0.882707 7.60113 0.54332 8.65871 1.20369 9.14449L6.53482 13.0662C6.83014 13.2834 6.95372 13.6685 6.84091 14.02L4.80461 20.3655C4.55237 21.1515 5.44089 21.8051 6.10125 21.3193Z" fill="#FFDA15"/>
</svg>
